<svg width="58" height="46" viewBox="0 0 58 46" fill="none" xmlns="http://www.w3.org/2000/svg">
<path d="M10.1914 15.6543L14.5859 13.8086C14.7617 13.7207 14.8496 13.5449 14.8496 13.2812C14.8496 13.1055 14.7617 12.9297 14.5859 12.7539L10.1914 10.9961L8.43359 6.60156C8.25781 6.42578 8.08203 6.25 7.90625 6.25C7.64258 6.25 7.4668 6.42578 7.37891 6.60156L5.5332 10.9961L1.13867 12.7539C0.962891 12.9297 0.875 13.1055 0.875 13.2812C0.875 13.5449 0.962891 13.7207 1.13867 13.8086L5.5332 15.6543L7.37891 20.0488C7.4668 20.2246 7.64258 20.3125 7.81836 20.3125C8.08203 20.3125 8.25781 20.2246 8.3457 20.0488L10.1914 15.6543ZM42.2715 41.7578L42.1836 41.6699H42.0957C40.9531 41.1426 40.25 40 40.25 38.5938C40.25 37.2754 40.9531 36.1328 42.0957 35.6055L42.1836 35.5176H42.2715L45.5234 34.1113L46.9297 30.8594V30.7715L47.0176 30.6836C47.3691 29.9805 47.8965 29.4531 48.5996 29.1895C48.5996 29.0137 48.5996 28.9258 48.6875 28.8379V13.2812C48.6875 11.7871 47.3691 10.4688 45.875 10.4688C44.293 10.4688 43.0625 11.7871 43.0625 13.2812V19.6094C43.0625 20.0488 42.7109 20.3125 42.3594 20.3125H40.9531C40.5137 20.3125 40.25 20.0488 40.25 19.6094V6.25C40.25 4.75586 38.9316 3.4375 37.4375 3.4375C35.8555 3.4375 34.625 4.75586 34.625 6.25V19.6094C34.625 20.0488 34.2734 20.3125 33.9219 20.3125H32.5156C32.0762 20.3125 31.8125 20.0488 31.8125 19.6094V3.4375C31.8125 1.94336 30.4941 0.625 29 0.625C27.418 0.625 26.1875 1.94336 26.1875 3.4375V19.6094C26.1875 20.0488 25.8359 20.3125 25.4844 20.3125H24.0781C23.6387 20.3125 23.375 20.0488 23.375 19.6094V6.25C23.375 4.75586 22.0566 3.4375 20.5625 3.4375C18.9805 3.4375 17.75 4.75586 17.75 6.25V27.4316L15.6406 24.6191C15.0254 23.7402 13.9707 23.2129 12.8281 23.2129C10.8066 23.2129 9.3125 24.707 9.3125 26.7285C9.3125 27.4316 9.48828 28.1348 9.92773 28.75L21.002 43.9551C21.793 45.0098 23.0234 45.625 24.4297 45.625H41.7441C43.4141 45.625 44.9082 44.6582 45.5234 43.1641L42.2715 41.7578ZM31.5488 30.5078L29 31.5625L27.8574 34.1992C27.7695 34.375 27.6816 34.375 27.5938 34.375C27.418 34.375 27.3301 34.375 27.2422 34.1992L26.1875 31.5625L23.5508 30.5078C23.375 30.4199 23.2871 30.332 23.2871 30.1562C23.2871 30.0684 23.375 29.9805 23.5508 29.8926L26.1875 28.75L27.2422 26.2012C27.3301 26.0254 27.418 25.9375 27.5059 25.9375C27.6816 25.9375 27.7695 26.0254 27.8574 26.2012L29 28.75L31.5488 29.8926C31.7246 29.9805 31.8125 30.0684 31.8125 30.1562C31.8125 30.332 31.7246 30.4199 31.5488 30.5078ZM57.125 38.5938C57.0371 38.418 56.9492 38.2422 56.7734 38.0664L52.3789 36.3086L50.6211 31.9141C50.4453 31.7383 50.2695 31.5625 50.0938 31.5625C49.8301 31.5625 49.6543 31.7383 49.5664 31.9141L47.7207 36.3086L43.3262 38.0664C43.1504 38.2422 43.0625 38.418 43.0625 38.5938C43.0625 38.8574 43.1504 39.0332 43.3262 39.1211L47.7207 40.9668L49.5664 45.3613C49.6543 45.5371 49.8301 45.625 50.0059 45.625C50.2695 45.625 50.4453 45.5371 50.5332 45.3613L52.3789 40.9668L56.7734 39.1211C56.9492 39.0332 57.0371 38.8574 57.0371 38.5938H57.125Z" fill="#3DB2FF"/>
</svg>
