<svg width="44" height="44" viewBox="0 0 44 44" fill="none" xmlns="http://www.w3.org/2000/svg">
<path d="M43.7969 22.125C43.709 10.084 33.9531 0.328125 22 0.328125C16.1113 0.328125 10.8379 2.70117 6.88281 6.39258L2.57617 2.08594C1.69727 1.20703 0.203125 1.82227 0.203125 3.05273V15.7969C0.203125 16.5879 0.818359 17.2031 1.60938 17.2031H14.3535C15.584 17.2031 16.1992 15.709 15.3203 14.8301L10.8379 10.3477C13.7383 7.62305 17.6934 5.95312 22 5.95312C30.877 5.95312 38.1719 13.248 38.1719 22.125C38.1719 31.0898 30.877 38.2969 22 38.2969C18.1328 38.2969 14.7051 37.0664 11.8926 34.8691C11.1016 34.166 9.87109 34.2539 9.08008 35.0449L8.11328 36.0117C7.23438 36.8906 7.32227 38.3848 8.28906 39.1758C11.9805 42.1641 16.8145 44.0098 22 43.9219C33.9531 43.9219 43.7969 34.166 43.7969 22.125ZM27.8887 29.0684L28.6797 27.9258C29.4707 27.0469 29.2949 25.7285 28.3281 25.0254L24.8125 22.2129V12.9844C24.8125 11.8418 23.8457 10.875 22.7031 10.875H21.2969C20.0664 10.875 19.1875 11.8418 19.1875 12.9844V24.9375L24.9004 29.4199C25.7793 30.123 27.0977 29.9473 27.8887 29.0684Z" fill="#FFB830"/>
</svg>
